<svg width="200" height="200" viewBox="0 0 200 200" fill="none" xmlns="http://www.w3.org/2000/svg">
  <mask id="mask0_180_470" style="mask-type:alpha" maskUnits="userSpaceOnUse" x="10" y="29" width="179" height="160">
  <path d="M11.6572 35.7158C9.95331 32.7209 12.5085 29.0986 15.8867 29.7041L74.457 40.1992L71.6182 88.2988C71.5927 88.7295 71.6669 89.1618 71.8369 89.5596C72.0067 89.9568 72.2677 90.3091 72.5967 90.5879C72.9261 90.8669 73.3172 91.0654 73.7363 91.167C74.1555 91.2686 74.5932 91.2711 75.0137 91.1738L92.2646 87.1816C93.5217 86.8909 94.6627 88.0022 94.4033 89.2744L89.2773 114.439C88.8581 116.501 90.7888 118.269 92.8027 117.656V117.655L103.459 114.409C104.705 114.03 105.909 115.081 105.735 116.352L105.714 116.476L97.5684 156.003C96.9489 159.01 100.945 160.666 102.616 158.076L103.53 156.66L103.545 156.638L103.558 156.613L154.049 55.585C155.079 53.5253 153.304 51.1693 151.042 51.6074L133.283 55.0439C131.984 55.2949 130.873 54.081 131.241 52.8008L135.346 38.5361L183.574 29.7246C186.941 29.1097 189.509 32.7041 187.836 35.7051L104.103 185.822C102.564 188.581 98.612 188.598 97.0498 185.853L11.6572 35.7158Z" fill="white" stroke="white"/>
  </mask>
  <g mask="url(#mask0_180_470)">
  <g opacity="0.2">
  <path d="M-4.16211 193.135H204.771ZM-4.16211 172.241H204.771ZM-4.16211 151.348H204.771ZM-4.16211 130.454H204.771ZM-4.16211 109.561H204.771ZM-3.87824 193.418L-3.87823 -15.5156ZM17.0151 193.418V-15.5156ZM37.9085 193.418V-15.5156ZM58.8019 193.418V-15.5156ZM79.6952 193.418V-15.5156ZM100.588 193.418V-15.5156ZM121.482 193.418V-15.5156ZM142.375 193.418V-15.5156ZM163.268 193.418V-15.5156ZM184.162 193.418V-15.5156ZM-4.16211 88.6674H204.771ZM-4.16211 67.774H204.771ZM-4.16211 46.8806H204.771ZM-4.16211 25.9873H204.771ZM-4.16211 5.09385H204.771Z" fill="white"/>
  <path d="M-4.16211 193.135H204.771M-4.16211 172.241H204.771M-4.16211 151.348H204.771M-4.16211 130.454H204.771M-4.16211 109.561H204.771M-3.87824 193.418L-3.87823 -15.5156M17.0151 193.418V-15.5156M37.9085 193.418V-15.5156M58.8019 193.418V-15.5156M79.6952 193.418V-15.5156M100.588 193.418V-15.5156M121.482 193.418V-15.5156M142.375 193.418V-15.5156M163.268 193.418V-15.5156M184.162 193.418V-15.5156M-4.16211 88.6674H204.771M-4.16211 67.774H204.771M-4.16211 46.8806H204.771M-4.16211 25.9873H204.771M-4.16211 5.09385H204.771" stroke="white" stroke-width="0.567755"/>
  </g>
  </g>
  <path opacity="0.45" d="M10.2342 36.5241C7.85028 32.3334 11.4211 27.2421 16.1746 28.0943L76.1747 38.8461L76.1193 39.7865L76.1071 39.9872L15.9739 29.212C15.8554 29.1908 15.7378 29.1743 15.6212 29.1621C14.9204 29.089 14.2565 29.1764 13.6552 29.3895C13.5546 29.4251 13.456 29.4646 13.3591 29.507C13.1659 29.5916 12.9799 29.689 12.8024 29.7987C11.9179 30.3454 11.2417 31.1882 10.8874 32.1606C10.5661 33.0419 10.5092 34.0301 10.8053 35.0027C10.9037 35.3257 11.0409 35.6469 11.22 35.9619L96.6139 186.1C96.6686 186.196 96.7259 186.289 96.7857 186.379C96.8845 186.528 96.9916 186.667 97.1029 186.799C97.1219 186.822 97.139 186.846 97.1583 186.868C97.1884 186.902 97.2206 186.935 97.2515 186.968C97.2941 187.014 97.3361 187.059 97.3801 187.103C97.401 187.124 97.4233 187.143 97.4444 187.163C97.493 187.209 97.5418 187.255 97.5919 187.298C97.6369 187.337 97.6832 187.374 97.7294 187.411C97.759 187.435 97.788 187.459 97.8181 187.482C97.8613 187.515 97.906 187.546 97.9501 187.577C97.9904 187.605 98.0299 187.634 98.071 187.661C98.1024 187.681 98.1345 187.701 98.1663 187.721C98.2185 187.753 98.2706 187.785 98.3238 187.815C98.3607 187.836 98.3984 187.855 98.4358 187.875C98.4793 187.898 98.5225 187.921 98.5666 187.943C98.6154 187.966 98.6647 187.988 98.7141 188.01C98.7543 188.028 98.7944 188.046 98.835 188.062C98.8845 188.082 98.9346 188.1 98.9847 188.119C99.0221 188.133 99.059 188.147 99.0967 188.16C99.1474 188.177 99.1985 188.192 99.2497 188.208C99.2943 188.221 99.339 188.233 99.3839 188.245C99.4303 188.258 99.4769 188.269 99.5236 188.28C99.5675 188.29 99.6114 188.3 99.6556 188.308C99.7075 188.319 99.7597 188.328 99.8119 188.336C99.8515 188.343 99.8909 188.35 99.9306 188.355C99.9852 188.363 100.04 188.369 100.095 188.375C100.139 188.38 100.184 188.383 100.228 188.386C100.271 188.389 100.313 188.392 100.356 188.394C100.414 188.396 100.472 188.398 100.531 188.398C100.567 188.399 100.604 188.399 100.641 188.398C100.696 188.397 100.751 188.396 100.806 188.393C100.849 188.39 100.892 188.387 100.936 188.384C100.981 188.38 101.026 188.377 101.071 188.372C101.129 188.365 101.188 188.357 101.246 188.348C101.273 188.344 101.3 188.341 101.327 188.336C101.394 188.325 101.46 188.313 101.527 188.298C101.557 188.292 101.587 188.284 101.616 188.277C101.674 188.264 101.732 188.25 101.789 188.234C101.828 188.224 101.866 188.211 101.904 188.2C101.957 188.184 102.011 188.168 102.063 188.15C102.101 188.137 102.138 188.123 102.175 188.109C102.231 188.088 102.286 188.067 102.341 188.045C102.367 188.034 102.392 188.021 102.418 188.009C102.481 187.981 102.544 187.954 102.606 187.924C102.641 187.906 102.675 187.886 102.71 187.867C102.753 187.844 102.796 187.822 102.838 187.797C102.89 187.768 102.941 187.736 102.992 187.704C103.025 187.683 103.058 187.663 103.091 187.641C103.139 187.609 103.185 187.576 103.231 187.542C103.265 187.518 103.299 187.494 103.332 187.469C103.367 187.442 103.401 187.413 103.435 187.385C103.864 187.035 104.242 186.597 104.538 186.065L188.272 35.9486C188.859 34.8963 188.981 33.7781 188.756 32.7594L188.678 32.4567C188.649 32.3572 188.616 32.2588 188.581 32.1617C188.545 32.0642 188.505 31.968 188.463 31.8734C187.914 30.6459 186.837 29.6701 185.492 29.3074C185.389 29.2795 185.284 29.2547 185.177 29.2342C184.858 29.1728 184.525 29.1463 184.182 29.1577C183.953 29.1653 183.719 29.19 183.483 29.2331L133.702 38.3294L134.054 37.1107L183.279 28.1165C188.016 27.2512 191.606 32.3022 189.265 36.5019L105.531 186.619C103.371 190.49 97.8195 190.513 95.6269 186.661L10.2342 36.5241Z" fill="white"/>
  <path opacity="0.45" d="M139.835 10.0642C141.086 9.81844 142.16 10.9865 141.806 12.2214L130.215 52.5046C129.628 54.5457 131.398 56.4939 133.485 56.0905L151.244 52.655C152.631 52.3864 153.73 53.832 153.094 55.1052L102.615 156.105L101.719 157.495C100.696 159.08 98.2291 158.081 98.6133 156.217L106.759 116.689C107.181 114.641 105.335 112.873 103.341 113.336L103.147 113.388L92.4912 116.633C91.2562 117.009 90.0638 115.925 90.3232 114.65L95.4482 89.4861C95.8622 87.4562 94.0424 85.6733 92.0235 86.1404L74.7716 90.1325C74.5131 90.1923 74.2442 90.1902 73.9864 90.1277C73.7287 90.0651 73.489 89.943 73.2862 89.7712C73.0836 89.5995 72.9231 89.3831 72.8185 89.1384C72.7138 88.8936 72.667 88.6271 72.6827 88.3611L76.4942 23.8181C76.5168 23.4384 76.6648 23.0768 76.9142 22.7907C77.1634 22.5048 77.5001 22.3102 77.8712 22.237L139.835 10.0642Z" stroke="white" stroke-width="1.13551"/>
  <path opacity="0.05" d="M139.725 9.5089L77.7608 21.6823C77.2658 21.7797 76.8171 22.0392 76.4852 22.4201C76.1532 22.8009 75.9568 23.2815 75.9268 23.7863L72.1153 88.3294C72.0943 88.6834 72.156 89.0374 72.2953 89.3633C72.4346 89.6893 72.6479 89.9781 72.918 90.207C73.1881 90.4359 73.5078 90.5985 73.8515 90.682C74.1953 90.7654 74.5537 90.7673 74.8984 90.6876L92.1503 86.6959C93.7643 86.3224 95.223 87.7479 94.8909 89.3751L89.7655 114.539C89.4209 116.233 91.0063 117.681 92.6558 117.178L103.312 113.933C104.963 113.43 106.551 114.882 106.201 116.577L98.0562 156.104C97.5465 158.577 100.827 159.925 102.194 157.805L103.108 156.389L153.6 55.3612C154.446 53.6697 152.988 51.7408 151.136 52.0997L133.377 55.5357C131.708 55.8582 130.289 54.3001 130.759 52.6637L142.35 12.3801C142.821 10.7396 141.395 9.1808 139.725 9.5089Z" fill="white"/>
  <mask id="mask1_180_470" style="mask-type:alpha" maskUnits="userSpaceOnUse" x="72" y="9" width="82" height="150">
  <path d="M139.725 9.5089L77.7608 21.6823C77.2658 21.7797 76.8171 22.0392 76.4852 22.4201C76.1532 22.8009 75.9568 23.2815 75.9268 23.7863L72.1153 88.3294C72.0943 88.6834 72.156 89.0374 72.2953 89.3633C72.4346 89.6893 72.6479 89.9781 72.918 90.207C73.1881 90.4359 73.5078 90.5985 73.8515 90.682C74.1953 90.7654 74.5537 90.7673 74.8984 90.6876L92.1503 86.6959C93.7643 86.3224 95.223 87.7479 94.8909 89.3751L89.7655 114.539C89.4209 116.233 91.0063 117.681 92.6558 117.178L103.312 113.933C104.963 113.43 106.551 114.882 106.201 116.577L98.0562 156.104C97.5465 158.577 100.827 159.925 102.194 157.805L103.108 156.389L153.6 55.3612C154.446 53.6697 152.988 51.7408 151.136 52.0997L133.377 55.5357C131.708 55.8582 130.289 54.3001 130.759 52.6637L142.35 12.3801C142.821 10.7396 141.395 9.1808 139.725 9.5089Z" fill="white"/>
  </mask>
  <g mask="url(#mask1_180_470)">
  <path opacity="0.15" d="M50.4971 29.2644L199.023 124.129M55.3747 25.2957L203.901 120.16M60.2523 21.3271L208.778 116.192M65.1298 17.3584L213.656 112.223M70.0074 13.3898L218.534 108.255M74.885 9.4211L223.411 104.286M79.7626 5.45245L228.289 100.317M84.6402 1.4838L233.166 96.3489M89.5177 -2.48485L238.044 92.3802M94.3953 -6.4535L242.921 88.4116M99.2729 -10.4221L247.799 84.4429M104.151 -14.3908L252.677 80.4743M109.028 -18.3594L257.554 76.5056M113.906 -22.3281L262.432 72.537M-17.7891 84.8255L130.737 179.69M-12.9115 80.8568L135.615 175.722M-8.03386 76.8882L140.492 171.753M-3.15627 72.9195L145.37 167.784M1.72131 68.9509L150.247 163.816M6.59889 64.9822L155.125 159.847M11.4764 61.0136L160.003 155.878M16.354 57.0449L164.88 151.91M21.2316 53.0763L169.758 147.941M26.1092 49.1076L174.635 143.972M30.9868 45.139L179.513 140.004M35.8643 41.1703L184.391 136.035M40.7419 37.2017L189.268 132.066M45.6195 33.233L194.146 128.098" stroke="white" stroke-width="0.567755"/>
  </g>
  </svg>
  