<svg width="979" height="89" viewBox="0 0 979 89" fill="none" xmlns="http://www.w3.org/2000/svg">
<path d="M328.999 86.823C327.739 88.427 325.161 87.535 325.161 85.4973V65.9264C325.161 63.5532 323.238 61.6301 320.865 61.6301H299.256C297.509 61.6301 296.49 59.6537 297.509 58.2339L311.715 38.3438C313.749 35.5001 311.715 31.5474 308.217 31.5474H282.067C280.319 31.5474 279.3 29.5711 280.319 28.1513L298.736 2.36498C299.141 1.80032 299.792 1.4648 300.484 1.4648H355.366C357.113 1.4648 358.132 3.44112 357.114 4.86096L342.907 24.751C340.873 27.5948 342.907 31.5474 346.405 31.5474H368.014C369.806 31.5474 370.813 33.6138 369.704 35.0254L329.003 86.8271L328.999 86.823Z" fill="#9135FF"/>
<mask id="mask0_1_195" style="mask-type:alpha" maskUnits="userSpaceOnUse" x="279" y="1" width="91" height="87">
<path d="M328.801 86.8227C327.541 88.4266 324.963 87.5346 324.963 85.4969V65.9261C324.963 63.5528 323.04 61.6297 320.666 61.6297H299.058C297.311 61.6297 296.292 59.6534 297.311 58.2335L311.517 38.3435C313.551 35.4997 311.517 31.5471 308.019 31.5471H281.868C280.121 31.5471 279.102 29.5708 280.121 28.1509L298.538 2.36463C298.943 1.79997 299.594 1.46445 300.285 1.46445H355.168C356.915 1.46445 357.934 3.44077 356.915 4.86061L342.709 24.7507C340.675 27.5944 342.709 31.5471 346.207 31.5471H367.816C369.608 31.5471 370.615 33.6134 369.506 35.0251L328.805 86.8268L328.801 86.8227Z" fill="black"/>
</mask>
<g mask="url(#mask0_1_195)">
<g filter="url(#filter0_f_1_195)">
<ellipse cx="10.4623" cy="27.9302" rx="10.4623" ry="27.9302" transform="matrix(0.00324134 0.999995 0.999995 -0.00324134 271.227 61.3274)" fill="#EEE6FF"/>
</g>
<g filter="url(#filter1_f_1_195)">
<ellipse cx="19.7534" cy="56.7016" rx="19.7534" ry="56.7016" transform="matrix(0.00324134 0.999995 0.999995 -0.00324134 205.013 16.4374)" fill="#EEE6FF"/>
</g>
<g filter="url(#filter2_f_1_195)">
<ellipse cx="10.4623" cy="57.9085" rx="10.4623" ry="57.9085" transform="matrix(0.00324134 0.999995 0.999995 -0.00324134 202.85 22.9686)" fill="#8900FF"/>
</g>
<g filter="url(#filter3_f_1_195)">
<ellipse cx="10.4623" cy="58.1208" rx="10.4623" ry="58.1208" transform="matrix(0.00324134 0.999995 0.999995 -0.00324134 211.578 57.1575)" fill="#8900FF"/>
</g>
<g filter="url(#filter4_f_1_195)">
<ellipse cx="10.4623" cy="58.1208" rx="10.4623" ry="58.1208" transform="matrix(0.00324134 0.999995 0.999995 -0.00324134 214.489 59.3397)" fill="#8900FF"/>
</g>
<g filter="url(#filter5_f_1_195)">
<ellipse cx="26.7282" cy="41.937" rx="26.7282" ry="41.937" transform="matrix(0.0584509 -0.99829 -0.99829 -0.0584509 420.939 52.4903)" fill="#EEE6FF"/>
</g>
<g filter="url(#filter6_f_1_195)">
<ellipse cx="6.59178" cy="40.8401" rx="6.59178" ry="40.8401" transform="matrix(-0.0172986 -0.99985 -0.99985 0.0172986 423.684 35.7738)" fill="#8900FF"/>
</g>
<g filter="url(#filter7_f_1_195)">
<ellipse cx="6.59178" cy="40.8401" rx="6.59178" ry="40.8401" transform="matrix(-0.0172986 -0.99985 -0.99985 0.0172986 423.684 35.7738)" fill="#8900FF"/>
</g>
<g filter="url(#filter8_f_1_195)">
<ellipse cx="280.451" cy="18.5056" rx="8.37029" ry="55.2889" transform="rotate(39.5103 280.451 18.5056)" fill="#8900FF"/>
</g>
<g filter="url(#filter9_f_1_195)">
<ellipse cx="369.984" cy="-10.1065" rx="8.37029" ry="55.2889" transform="rotate(37.8923 369.984 -10.1065)" fill="#8900FF"/>
</g>
<g filter="url(#filter10_f_1_195)">
<ellipse cx="358.377" cy="13.4946" rx="11.3426" ry="18.3586" transform="rotate(37.8923 358.377 13.4946)" fill="#00C2FF"/>
</g>
<g filter="url(#filter11_f_1_195)">
<ellipse cx="276.147" cy="74.2747" rx="8.37029" ry="55.2889" transform="rotate(37.8923 276.147 74.2747)" fill="#8900FF"/>
</g>
<g filter="url(#filter12_f_1_195)">
<ellipse cx="276.147" cy="74.2747" rx="8.37029" ry="55.2889" transform="rotate(37.8923 276.147 74.2747)" fill="#8900FF"/>
</g>
<g filter="url(#filter13_f_1_195)">
<ellipse cx="347.434" cy="58.2714" rx="8.37029" ry="55.2889" transform="rotate(37.8923 347.434 58.2714)" fill="#8900FF"/>
</g>
<g filter="url(#filter14_f_1_195)">
<ellipse cx="352.689" cy="63.0069" rx="11.3426" ry="29.0568" transform="rotate(37.8923 352.689 63.0069)" fill="#00C2FF"/>
</g>
</g>
<path d="M265.911 0C248.439 25.0088 248.337 63.7742 265.911 88.8731H277.716C260.146 63.7742 260.248 25.0088 277.716 0H265.911Z" fill="white"/>
<path d="M383.972 9.15527e-05H372.167C389.639 25.0089 389.741 63.7743 372.167 88.8732H383.972C401.542 63.7743 401.44 25.0089 383.972 9.15527e-05Z" fill="white"/>
<path d="M423.64 75V19H458.84C478.28 19 489.4 27.88 489.4 47C489.4 66.2 478.2 75 458.76 75H423.64ZM469.72 47C469.72 36.52 465.24 32.6 456.12 32.6H442.84V61.4H456.12C465.24 61.4 469.72 57.48 469.72 47ZM499.187 75V19H554.467V32.6H518.387V40.12H553.907V53.32H518.387V61.4H555.507V75H499.187ZM579.751 19L594.551 59.32L609.111 19H629.031L606.951 75H581.351L559.271 19H579.751ZM653.236 75V32.76H631.716V19H693.956V32.76H672.436V75H653.236ZM731.745 75.96C708.145 75.96 695.825 66.04 695.825 47C695.825 27.96 708.145 18.04 731.745 18.04C755.345 18.04 767.745 27.96 767.745 47C767.745 66.04 755.345 75.96 731.745 75.96ZM731.745 62.12C742.865 62.12 748.065 57.4 748.065 47C748.065 36.52 742.865 31.8 731.745 31.8C720.625 31.8 715.425 36.52 715.425 47C715.425 57.4 720.625 62.12 731.745 62.12ZM809.948 75.96C786.348 75.96 774.028 66.04 774.028 47C774.028 27.96 786.348 18.04 809.948 18.04C833.548 18.04 845.948 27.96 845.948 47C845.948 66.04 833.548 75.96 809.948 75.96ZM809.948 62.12C821.068 62.12 826.268 57.4 826.268 47C826.268 36.52 821.068 31.8 809.948 31.8C798.828 31.8 793.628 36.52 793.628 47C793.628 57.4 798.828 62.12 809.948 62.12ZM855.671 75V19H874.871V61H908.391V75H855.671ZM944.226 75.96C921.346 75.96 911.666 70.04 911.666 56.28V56.2H931.106V56.28C931.106 60.92 934.226 63.4 944.226 63.4C954.546 63.4 956.946 61.48 956.946 58.52C956.946 55.88 955.186 54.68 951.346 54.36L935.026 53.08C917.746 51.72 912.466 46.44 912.466 36.36C912.466 24.2 923.026 18.04 944.546 18.04C966.546 18.04 975.426 23.72 975.426 36.84V37H956.306V36.84C956.306 32.2 953.426 30.44 944.226 30.44C934.546 30.44 931.586 32.2 931.586 35.32C931.586 38.04 933.746 39.08 938.786 39.48L954.946 40.68C970.146 41.8 976.386 46.68 976.386 57.16C976.386 69.24 967.346 75.96 944.226 75.96Z" fill="white"/>
<path d="M20.72 19L35.52 59.32L50.08 19H70L47.92 75H22.32L0.24 19H20.72ZM76.64 75V19H95.84V75H76.64ZM124.361 75V32.76H102.841V19H165.081V32.76H143.561V75H124.361ZM172.109 75V19H227.389V32.6H191.309V40.12H226.829V53.32H191.309V61.4H228.429V75H172.109Z" fill="white"/>
<defs>
<filter id="filter0_f_1_195" x="242.164" y="32.1395" width="114.054" height="79.1192" filterUnits="userSpaceOnUse" color-interpolation-filters="sRGB">
<feFlood flood-opacity="0" result="BackgroundImageFix"/>
<feBlend mode="normal" in="SourceGraphic" in2="BackgroundImageFix" result="shape"/>
<feGaussianBlur stdDeviation="14.5485" result="effect1_foregroundBlur_1_195"/>
</filter>
<filter id="filter1_f_1_195" x="175.98" y="-12.8443" width="171.597" height="97.7023" filterUnits="userSpaceOnUse" color-interpolation-filters="sRGB">
<feFlood flood-opacity="0" result="BackgroundImageFix"/>
<feBlend mode="normal" in="SourceGraphic" in2="BackgroundImageFix" result="shape"/>
<feGaussianBlur stdDeviation="14.5485" result="effect1_foregroundBlur_1_195"/>
</filter>
<filter id="filter2_f_1_195" x="185.426" y="5.32095" width="150.733" height="55.8442" filterUnits="userSpaceOnUse" color-interpolation-filters="sRGB">
<feFlood flood-opacity="0" result="BackgroundImageFix"/>
<feBlend mode="normal" in="SourceGraphic" in2="BackgroundImageFix" result="shape"/>
<feGaussianBlur stdDeviation="8.72909" result="effect1_foregroundBlur_1_195"/>
</filter>
<filter id="filter3_f_1_195" x="194.154" y="39.5092" width="151.157" height="55.8443" filterUnits="userSpaceOnUse" color-interpolation-filters="sRGB">
<feFlood flood-opacity="0" result="BackgroundImageFix"/>
<feBlend mode="normal" in="SourceGraphic" in2="BackgroundImageFix" result="shape"/>
<feGaussianBlur stdDeviation="8.72909" result="effect1_foregroundBlur_1_195"/>
</filter>
<filter id="filter4_f_1_195" x="197.064" y="41.6914" width="151.157" height="55.8443" filterUnits="userSpaceOnUse" color-interpolation-filters="sRGB">
<feFlood flood-opacity="0" result="BackgroundImageFix"/>
<feBlend mode="normal" in="SourceGraphic" in2="BackgroundImageFix" result="shape"/>
<feGaussianBlur stdDeviation="8.72909" result="effect1_foregroundBlur_1_195"/>
</filter>
<filter id="filter5_f_1_195" x="309.644" y="-32.5371" width="141.984" height="111.787" filterUnits="userSpaceOnUse" color-interpolation-filters="sRGB">
<feFlood flood-opacity="0" result="BackgroundImageFix"/>
<feBlend mode="normal" in="SourceGraphic" in2="BackgroundImageFix" result="shape"/>
<feGaussianBlur stdDeviation="14.5485" result="effect1_foregroundBlur_1_195"/>
</filter>
<filter id="filter6_f_1_195" x="324.444" y="5.80216" width="116.585" height="48.1746" filterUnits="userSpaceOnUse" color-interpolation-filters="sRGB">
<feFlood flood-opacity="0" result="BackgroundImageFix"/>
<feBlend mode="normal" in="SourceGraphic" in2="BackgroundImageFix" result="shape"/>
<feGaussianBlur stdDeviation="8.72909" result="effect1_foregroundBlur_1_195"/>
</filter>
<filter id="filter7_f_1_195" x="324.444" y="5.80216" width="116.585" height="48.1746" filterUnits="userSpaceOnUse" color-interpolation-filters="sRGB">
<feFlood flood-opacity="0" result="BackgroundImageFix"/>
<feBlend mode="normal" in="SourceGraphic" in2="BackgroundImageFix" result="shape"/>
<feGaussianBlur stdDeviation="8.72909" result="effect1_foregroundBlur_1_195"/>
</filter>
<filter id="filter8_f_1_195" x="227.223" y="-41.9441" width="106.456" height="120.899" filterUnits="userSpaceOnUse" color-interpolation-filters="sRGB">
<feFlood flood-opacity="0" result="BackgroundImageFix"/>
<feBlend mode="normal" in="SourceGraphic" in2="BackgroundImageFix" result="shape"/>
<feGaussianBlur stdDeviation="8.72909" result="effect1_foregroundBlur_1_195"/>
</filter>
<filter id="filter9_f_1_195" x="317.926" y="-71.5028" width="104.117" height="122.793" filterUnits="userSpaceOnUse" color-interpolation-filters="sRGB">
<feFlood flood-opacity="0" result="BackgroundImageFix"/>
<feBlend mode="normal" in="SourceGraphic" in2="BackgroundImageFix" result="shape"/>
<feGaussianBlur stdDeviation="8.72909" result="effect1_foregroundBlur_1_195"/>
</filter>
<filter id="filter10_f_1_195" x="326.522" y="-20.0431" width="63.7106" height="67.0755" filterUnits="userSpaceOnUse" color-interpolation-filters="sRGB">
<feFlood flood-opacity="0" result="BackgroundImageFix"/>
<feBlend mode="normal" in="SourceGraphic" in2="BackgroundImageFix" result="shape"/>
<feGaussianBlur stdDeviation="8.72909" result="effect1_foregroundBlur_1_195"/>
</filter>
<filter id="filter11_f_1_195" x="224.088" y="12.8784" width="104.117" height="122.793" filterUnits="userSpaceOnUse" color-interpolation-filters="sRGB">
<feFlood flood-opacity="0" result="BackgroundImageFix"/>
<feBlend mode="normal" in="SourceGraphic" in2="BackgroundImageFix" result="shape"/>
<feGaussianBlur stdDeviation="8.72909" result="effect1_foregroundBlur_1_195"/>
</filter>
<filter id="filter12_f_1_195" x="224.088" y="12.8784" width="104.117" height="122.793" filterUnits="userSpaceOnUse" color-interpolation-filters="sRGB">
<feFlood flood-opacity="0" result="BackgroundImageFix"/>
<feBlend mode="normal" in="SourceGraphic" in2="BackgroundImageFix" result="shape"/>
<feGaussianBlur stdDeviation="8.72909" result="effect1_foregroundBlur_1_195"/>
</filter>
<filter id="filter13_f_1_195" x="295.376" y="-3.12498" width="104.117" height="122.793" filterUnits="userSpaceOnUse" color-interpolation-filters="sRGB">
<feFlood flood-opacity="0" result="BackgroundImageFix"/>
<feBlend mode="normal" in="SourceGraphic" in2="BackgroundImageFix" result="shape"/>
<feGaussianBlur stdDeviation="8.72909" result="effect1_foregroundBlur_1_195"/>
</filter>
<filter id="filter14_f_1_195" x="315.262" y="21.5769" width="74.8554" height="82.8601" filterUnits="userSpaceOnUse" color-interpolation-filters="sRGB">
<feFlood flood-opacity="0" result="BackgroundImageFix"/>
<feBlend mode="normal" in="SourceGraphic" in2="BackgroundImageFix" result="shape"/>
<feGaussianBlur stdDeviation="8.72909" result="effect1_foregroundBlur_1_195"/>
</filter>
</defs>
</svg>
