<svg width="1123" height="47" viewBox="0 0 1123 47" fill="none" xmlns="http://www.w3.org/2000/svg">
<g clip-path="url(#clip0_12_320)">
<path d="M84.875 0C103.939 0 113.956 8.014 113.956 23.395C113.956 38.776 103.939 46.789 84.875 46.789C65.811 46.789 55.858 38.775 55.858 23.395C55.858 8.014 65.811 0 84.875 0ZM304.339 0C323.403 0 333.42 8.014 333.42 23.395C333.42 38.776 323.403 46.789 304.339 46.789C285.275 46.789 275.322 38.775 275.322 23.395C275.322 8.014 285.274 0 304.339 0ZM35.349 0.775C45.689 0.775 51.571 6.14 51.571 15.575C51.571 21.003 48.986 25.011 44.98 27.337L51.765 46.013H35.285L30.567 31.343H15.51V46.013H0V0.775H35.349ZM135.411 34.705H162.488V46.013H119.9V0.775H135.411V34.705ZM183.791 34.705H210.869V46.013H168.281V0.775H183.791V34.705ZM245.53 0.774C261.234 0.774 270.217 7.884 270.217 23.394C270.217 38.904 261.169 46.012 245.465 46.012H217.095V0.775L245.53 0.774ZM356.661 31.86L363.253 8.854H380.637L387.616 32.764L393.109 0.776H408.232L398.926 46.014H379.345L371.849 20.423L364.546 46.013H344.899L335.594 0.776H350.975L356.661 31.86ZM432.876 0.775L451.553 30.18H451.682V0.775H466.417V46.013H447.805L428.999 16.48H428.805V46.013H414.135V0.775H432.876ZM84.875 11.115C75.892 11.115 71.691 14.993 71.691 23.395C71.691 31.795 75.892 35.608 84.875 35.608C93.858 35.608 98.058 31.86 98.058 23.395C98.058 14.93 93.858 11.115 84.875 11.115ZM304.339 11.115C295.356 11.115 291.155 14.993 291.155 23.395C291.155 31.795 295.356 35.608 304.339 35.608C313.322 35.608 317.522 31.86 317.522 23.395C317.522 14.93 313.322 11.115 304.339 11.115ZM232.604 35.026H243.333C250.7 35.026 254.318 31.86 254.318 23.394C254.318 14.928 250.7 11.762 243.333 11.762H232.604V35.026ZM15.51 20.68H30.955C34.122 20.68 35.673 19 35.673 16.027C35.673 13.054 34.122 11.438 30.955 11.438H15.51V20.68Z" fill="white"/>
<path d="M530.998 0.773438C531.957 0.773438 532.48 1.89144 531.866 2.62844L521.423 15.1604C520.195 16.6334 521.242 18.8714 523.161 18.8714H533.262C534.221 18.8714 534.744 19.9894 534.13 20.7264L513.922 44.9804C513.816 45.108 513.683 45.2107 513.533 45.2811C513.383 45.3516 513.219 45.3881 513.053 45.3881C512.887 45.3881 512.723 45.3516 512.573 45.2811C512.423 45.2107 512.29 45.108 512.184 44.9804L491.975 20.7284C491.361 19.9914 491.885 18.8734 492.844 18.8734H502.942C504.859 18.8734 505.909 16.6354 504.681 15.1624L494.237 2.62844C493.623 1.89144 494.147 0.773438 495.105 0.773438H530.998Z" fill="#FF4100"/>
<mask id="mask0_12_320" style="mask-type:alpha" maskUnits="userSpaceOnUse" x="491" y="0" width="44" height="46">
<path d="M530.998 0.773438C531.957 0.773438 532.48 1.89144 531.866 2.62844L521.423 15.1604C520.195 16.6334 521.242 18.8714 523.161 18.8714H533.262C534.221 18.8714 534.744 19.9904 534.13 20.7264L513.922 44.9804C513.816 45.108 513.683 45.2107 513.533 45.2811C513.383 45.3516 513.219 45.3881 513.053 45.3881C512.887 45.3881 512.723 45.3516 512.573 45.2811C512.423 45.2107 512.29 45.108 512.184 44.9804L491.975 20.7284C491.361 19.9924 491.885 18.8734 492.844 18.8734H502.942C504.859 18.8734 505.909 16.6354 504.681 15.1624L494.237 2.62844C493.623 1.89144 494.147 0.773438 495.105 0.773438H530.998Z" fill="black"/>
</mask>
<g mask="url(#mask0_12_320)">
<g filter="url(#filter0_f_12_320)">
<path d="M522.914 21.3028C520.339 19.8011 523.571 9.4636 530.133 -1.78663C536.695 -13.0369 544.101 -20.9396 546.676 -19.4379C549.251 -17.9361 546.019 -7.59863 539.457 3.6516C532.895 14.9018 525.489 22.8046 522.914 21.3028Z" fill="#FFE6E4"/>
</g>
<g filter="url(#filter1_f_12_320)">
<path d="M521.765 44.2794C519.191 42.7777 522.423 32.4402 528.984 21.1899C535.546 9.9397 542.953 2.03698 545.527 3.5387C548.102 5.04042 544.87 15.3779 538.308 26.6282C531.747 37.8784 524.34 45.7811 521.765 44.2794Z" fill="#FFE6E4"/>
</g>
<g filter="url(#filter2_f_12_320)">
<path d="M505.243 19.0907C506.903 17.8808 502.491 9.00184 495.388 -0.740904C488.285 -10.4836 481.182 -17.4008 479.522 -16.1909C477.863 -14.9809 482.275 -6.10195 489.378 3.6408C496.48 13.3835 503.584 20.3007 505.243 19.0907Z" fill="#FF00B3"/>
</g>
<g filter="url(#filter3_f_12_320)">
<path d="M510.988 51.7548C512.647 50.5448 508.235 41.6659 501.132 31.9231C494.029 22.1804 486.926 15.2632 485.266 16.4732C483.607 17.6832 488.019 26.5621 495.122 36.3049C502.225 46.0476 509.328 52.9648 510.988 51.7548Z" fill="#FF00B3"/>
</g>
<g filter="url(#filter4_f_12_320)">
<path d="M520.884 19.0986C519.225 17.8886 523.637 9.00965 530.74 -0.733098C537.843 -10.4758 544.946 -17.393 546.606 -16.183C548.265 -14.9731 543.853 -6.09413 536.75 3.64861C529.648 13.3914 522.544 20.3085 520.884 19.0986Z" fill="#FF00B3"/>
</g>
<g filter="url(#filter5_f_12_320)">
<path d="M513.991 51.7548C512.331 50.5448 516.744 41.6659 523.846 31.9232C530.949 22.1804 538.052 15.2632 539.712 16.4732C541.372 17.6832 536.959 26.5621 529.857 36.3049C522.754 46.0476 515.651 52.9648 513.991 51.7548Z" fill="#FF00B3"/>
</g>
<g filter="url(#filter6_f_12_320)">
<path d="M517.438 19.0986C515.778 17.8886 520.191 9.00965 527.294 -0.733098C534.396 -10.4758 541.5 -17.393 543.159 -16.183C544.819 -14.9731 540.407 -6.09413 533.304 3.64861C526.201 13.3914 519.098 20.3085 517.438 19.0986Z" fill="#FF00B3"/>
</g>
<g filter="url(#filter7_f_12_320)">
<path d="M511.694 51.7548C510.034 50.5448 514.447 41.6659 521.549 31.9232C528.652 22.1804 535.756 15.2632 537.415 16.4732C539.075 17.6832 534.663 26.5621 527.56 36.3049C520.457 46.0476 513.354 52.9648 511.694 51.7548Z" fill="#FF00B3"/>
</g>
<g filter="url(#filter8_f_12_320)">
<path d="M509.95 20.8515C512.203 18.8996 507.115 9.33806 498.586 -0.50467C490.056 -10.3474 481.316 -16.7441 479.064 -14.7922C476.811 -12.8402 481.899 -3.2787 490.428 6.56403C498.957 16.4068 507.697 22.8035 509.95 20.8515Z" fill="#E23D14"/>
</g>
<g filter="url(#filter9_f_12_320)">
<path d="M512.003 47.6172C514.417 45.8699 510.186 35.8997 502.551 25.3482C494.916 14.7966 486.77 7.65931 484.355 9.40659C481.94 11.1539 486.172 21.124 493.806 31.6756C501.441 42.2272 509.588 49.3645 512.003 47.6172Z" fill="#E23D14"/>
</g>
</g>
<path d="M481.842 0C472.643 13.167 472.59 33.575 481.842 46.789H488.057C478.807 33.575 478.86 13.167 488.057 0H481.842ZM544.263 0H538.048C547.247 13.167 547.3 33.575 538.048 46.789H544.263C553.513 33.575 553.459 13.167 544.263 0Z" fill="white"/>
</g>
<path d="M570 46.221V0.779005H605.216C624.665 0.779005 635.79 7.98481 635.79 23.5C635.79 39.0801 624.585 46.221 605.136 46.221H570ZM616.101 23.5C616.101 14.9959 611.619 11.8149 602.495 11.8149H589.209V35.1851H602.495C611.619 35.1851 616.101 32.0041 616.101 23.5ZM645.582 46.221V0.779005H700.887V11.8149H664.791V17.9171H700.327V28.6285H664.791V35.1851H701.928V46.221H645.582ZM726.183 0.779005L740.99 33.4972L755.556 0.779005H775.485L753.395 46.221H727.783L705.693 0.779005H726.183ZM799.702 46.221V11.9447H778.172V0.779005H840.44V11.9447H818.91V46.221H799.702ZM878.247 47C854.636 47 842.31 38.9503 842.31 23.5C842.31 8.04972 854.636 0 878.247 0C901.857 0 914.263 8.04972 914.263 23.5C914.263 38.9503 901.857 47 878.247 47ZM878.247 35.7693C889.372 35.7693 894.574 31.9392 894.574 23.5C894.574 14.9959 889.372 11.1657 878.247 11.1657C867.121 11.1657 861.919 14.9959 861.919 23.5C861.919 31.9392 867.121 35.7693 878.247 35.7693ZM956.486 47C932.875 47 920.549 38.9503 920.549 23.5C920.549 8.04972 932.875 0 956.486 0C980.096 0 992.502 8.04972 992.502 23.5C992.502 38.9503 980.096 47 956.486 47ZM956.486 35.7693C967.611 35.7693 972.813 31.9392 972.813 23.5C972.813 14.9959 967.611 11.1657 956.486 11.1657C945.36 11.1657 940.158 14.9959 940.158 23.5C940.158 31.9392 945.36 35.7693 956.486 35.7693ZM1002.23 46.221V0.779005H1021.44V34.8605H1054.97V46.221H1002.23ZM1090.83 47C1067.93 47 1058.25 42.1961 1058.25 31.0304V30.9655H1077.7V31.0304C1077.7 34.7956 1080.82 36.808 1090.83 36.808C1101.15 36.808 1103.55 35.25 1103.55 32.8481C1103.55 30.7058 1101.79 29.732 1097.95 29.4724L1081.62 28.4337C1064.33 27.3301 1059.05 23.0456 1059.05 14.866C1059.05 4.99862 1069.62 0 1091.15 0C1113.16 0 1122.04 4.60912 1122.04 15.2555V15.3854H1102.91V15.2555C1102.91 11.4903 1100.03 10.0622 1090.83 10.0622C1081.14 10.0622 1078.18 11.4903 1078.18 14.0221C1078.18 16.2293 1080.34 17.0732 1085.38 17.3978L1101.55 18.3715C1116.76 19.2804 1123 23.2403 1123 31.7445C1123 41.547 1113.96 47 1090.83 47Z" fill="white"/>
<defs>
<filter id="filter0_f_12_320" x="515.134" y="-26.5112" width="39.3207" height="54.8896" filterUnits="userSpaceOnUse" color-interpolation-filters="sRGB">
<feFlood flood-opacity="0" result="BackgroundImageFix"/>
<feBlend mode="normal" in="SourceGraphic" in2="BackgroundImageFix" result="shape"/>
<feGaussianBlur stdDeviation="3.447" result="effect1_foregroundBlur_12_320"/>
</filter>
<filter id="filter1_f_12_320" x="513.986" y="-3.53463" width="39.3207" height="54.8896" filterUnits="userSpaceOnUse" color-interpolation-filters="sRGB">
<feFlood flood-opacity="0" result="BackgroundImageFix"/>
<feBlend mode="normal" in="SourceGraphic" in2="BackgroundImageFix" result="shape"/>
<feGaussianBlur stdDeviation="3.447" result="effect1_foregroundBlur_12_320"/>
</filter>
<filter id="filter2_f_12_320" x="472.279" y="-23.2221" width="40.2079" height="49.3427" filterUnits="userSpaceOnUse" color-interpolation-filters="sRGB">
<feFlood flood-opacity="0" result="BackgroundImageFix"/>
<feBlend mode="normal" in="SourceGraphic" in2="BackgroundImageFix" result="shape"/>
<feGaussianBlur stdDeviation="3.447" result="effect1_foregroundBlur_12_320"/>
</filter>
<filter id="filter3_f_12_320" x="478.023" y="9.44194" width="40.2079" height="49.3427" filterUnits="userSpaceOnUse" color-interpolation-filters="sRGB">
<feFlood flood-opacity="0" result="BackgroundImageFix"/>
<feBlend mode="normal" in="SourceGraphic" in2="BackgroundImageFix" result="shape"/>
<feGaussianBlur stdDeviation="3.447" result="effect1_foregroundBlur_12_320"/>
</filter>
<filter id="filter4_f_12_320" x="513.641" y="-23.2143" width="40.2079" height="49.3427" filterUnits="userSpaceOnUse" color-interpolation-filters="sRGB">
<feFlood flood-opacity="0" result="BackgroundImageFix"/>
<feBlend mode="normal" in="SourceGraphic" in2="BackgroundImageFix" result="shape"/>
<feGaussianBlur stdDeviation="3.447" result="effect1_foregroundBlur_12_320"/>
</filter>
<filter id="filter5_f_12_320" x="506.748" y="9.44194" width="40.2079" height="49.3427" filterUnits="userSpaceOnUse" color-interpolation-filters="sRGB">
<feFlood flood-opacity="0" result="BackgroundImageFix"/>
<feBlend mode="normal" in="SourceGraphic" in2="BackgroundImageFix" result="shape"/>
<feGaussianBlur stdDeviation="3.447" result="effect1_foregroundBlur_12_320"/>
</filter>
<filter id="filter6_f_12_320" x="510.195" y="-23.2143" width="40.2079" height="49.3427" filterUnits="userSpaceOnUse" color-interpolation-filters="sRGB">
<feFlood flood-opacity="0" result="BackgroundImageFix"/>
<feBlend mode="normal" in="SourceGraphic" in2="BackgroundImageFix" result="shape"/>
<feGaussianBlur stdDeviation="3.447" result="effect1_foregroundBlur_12_320"/>
</filter>
<filter id="filter7_f_12_320" x="504.451" y="9.44194" width="40.2079" height="49.3427" filterUnits="userSpaceOnUse" color-interpolation-filters="sRGB">
<feFlood flood-opacity="0" result="BackgroundImageFix"/>
<feBlend mode="normal" in="SourceGraphic" in2="BackgroundImageFix" result="shape"/>
<feGaussianBlur stdDeviation="3.447" result="effect1_foregroundBlur_12_320"/>
</filter>
<filter id="filter8_f_12_320" x="471.636" y="-22.0346" width="45.7411" height="50.1318" filterUnits="userSpaceOnUse" color-interpolation-filters="sRGB">
<feFlood flood-opacity="0" result="BackgroundImageFix"/>
<feBlend mode="normal" in="SourceGraphic" in2="BackgroundImageFix" result="shape"/>
<feGaussianBlur stdDeviation="3.447" result="effect1_foregroundBlur_12_320"/>
</filter>
<filter id="filter9_f_12_320" x="476.782" y="2.24662" width="42.7939" height="52.5302" filterUnits="userSpaceOnUse" color-interpolation-filters="sRGB">
<feFlood flood-opacity="0" result="BackgroundImageFix"/>
<feBlend mode="normal" in="SourceGraphic" in2="BackgroundImageFix" result="shape"/>
<feGaussianBlur stdDeviation="3.447" result="effect1_foregroundBlur_12_320"/>
</filter>
<clipPath id="clip0_12_320">
<rect width="552" height="47" fill="white"/>
</clipPath>
</defs>
</svg>
